<svg width="1085" height="988" viewBox="0 0 1085 988" fill="none" xmlns="http://www.w3.org/2000/svg">
<path d="M2.5 986.5C72.124 878.98 122.87 828.671 218.5 740.5C218.5 740.5 241.342 687.019 252 653C263.66 615.781 244 528.5 244 528.5C244 528.5 207.779 323.11 263 212.5C311.183 115.986 463.5 22.5 463.5 22.5C463.5 22.5 627.478 -20.378 721.5 22.5C841.514 77.2315 813.402 201.611 918 273.5C984.512 319.213 1082 369.5 1082 369.5L1012 697L827.5 671L763 852C763 852 696.471 883.417 655 887C623.096 889.757 578 986.5 578 986.5" stroke="white" stroke-width="5"/>
</svg>
